<svg xmlns="http://www.w3.org/2000/svg" viewBox="0 0 159.16 140.25"><defs><style>.cls-1{fill:#ff881d;}</style></defs><title>booking_confirm</title><g id="Слой_2" data-name="Слой 2"><g id="Layer_1" data-name="Layer 1"><path class="cls-1" d="M129.31,32.55,119.69,37A59.68,59.68,0,1,1,98.85,17.84l6.24-8.48a70.18,70.18,0,1,0,24.22,23.19Z"/><path class="cls-1" d="M119.22,24.13l-.44-.84,21.94-12.37-2.91.91c-.23-.88-.39-1.51-.62-2.36l9.38-3.89c-.09-.21-.17-.42-.25-.63l-2.77.55.55-1.25c-.75.22-1.26.32-1.72.51L127.8,10.68l-15.67,9-.45-.76c2.63-1.71,5.28-3.39,7.88-5.15a19,19,0,0,0,2.14-2c-4.1,2.32-8.21,4.61-12.29,7-1.2.7-2.22,2.13-3.45,2.31-3.18.45-5.06,2.6-7.33,4.43a86.21,86.21,0,0,0-21.56,26c-3.61,6.57-7,13.28-10.5,20.08-.8-1.63-1.3-3.48-2.43-4.81-3.06-3.63-6.38-7-9.6-10.53A9.79,9.79,0,0,0,53.19,55c-.32-.24-.87-.61-1.09-.49-2.53,1.35-4-.36-5.61-1.82-1.41-1.28-2.63-3-5-2.32,1.21,2.75,5.34,3.51,5,7.65l-2.9-2v1.29c-.47-.1-1-.05-1.38-.31C40.45,55.57,38.8,54,37,52.7s-3.9-2.58-5.86-3.86A107.57,107.57,0,0,0,40,56.48c.44.35,1.17,1.12,1.09,1.23-1.21,1.73.6,1.86,1.31,2.36a34,34,0,0,1,10.4,11.35c2.58,4.75,4.65,9.78,6.88,14.72,2.53,5.6,5,11.23,7.69,17.31.54-1.32.87-2.1,1.19-2.88C73.37,89,77.65,77.07,83.1,65.76a90.92,90.92,0,0,1,26.58-33c14.56-11.21,30.42-19.68,48.63-23.22.31-.06.57-.41.85-.62C144.45,10.39,131.64,16.76,119.22,24.13Z"/></g></g></svg>