<svg xmlns="http://www.w3.org/2000/svg" viewBox="0 0 40.62 40.55"><defs><style>.cls-1{fill:#fff;}</style></defs><title>direction</title><g id="Слой_2" data-name="Слой 2"><g id="Layer_1" data-name="Layer 1"><path class="cls-1" d="M40.62,1.29c-.09.24-.17.51-.28.77q-4,9.42-8.07,18.83l-8,18.69a1.29,1.29,0,0,1-1.81.83,1.47,1.47,0,0,1-.72-1Q19.66,31.79,17.6,24.2a1.63,1.63,0,0,0-1.33-1.27c-2.43-.64-4.85-1.33-7.27-2-2.62-.72-5.25-1.42-7.88-2.13-.9-.24-1.36-1-1-1.74A1.73,1.73,0,0,1,1,16.32q5.91-2.57,11.83-5.09L38.56.18c.93-.39,1.69-.14,2,.67C40.56,1,40.58,1.11,40.62,1.29Z"/></g></g></svg>