<svg xmlns="http://www.w3.org/2000/svg" viewBox="0 0 43.46 41.43"><defs><style>.cls-1{opacity:0.5;}.cls-2{fill:#575757;}</style></defs><title>Ресурс 11</title><g id="Слой_2" data-name="Слой 2"><g id="Layer_1" data-name="Layer 1"><g class="cls-1"><path class="cls-2" d="M0,35.46V0H32V6.33C29.59,7,27.35,7.62,25.11,8.2a6,6,0,0,1-1.4.09H6.27A2.7,2.7,0,0,0,5,8.39a1.58,1.58,0,0,0-.7,1c0,.2.5.57.84.7a3.46,3.46,0,0,0,1.12,0h16c-.77,1.51-1.38,2.87-2.15,4.12-.18.29-.93.33-1.41.34-4,0-8,0-12,0a3,3,0,0,0-1.12,0,7.86,7.86,0,0,0-1.28,1c.42.27.84.77,1.26.78,4.06.06,8.13,0,12.19,0,2.06,0,2.06,0,2.07,2.11v2.09c-.67,0-1.17.08-1.66.08-4.11,0-8.23,0-12.34,0a2.67,2.67,0,0,0-1.3.36c-.17.11-.27.76-.15.86a2.39,2.39,0,0,0,1.27.61c3.22.05,6.43,0,9.64,0h1.67a28.14,28.14,0,0,0-.14,3c.05,1.09-.42,1.38-1.43,1.37-3.16-.05-6.33,0-9.5,0-.66,0-1.66-.21-1.52.87.06.39,1,.93,1.51.95,3.17.09,6.34.09,9.5,0,1.15,0,1.49.36,1.43,1.46-.07,1.37,0,2.74-.06,4.11,0,.39-.55,1.07-.85,1.07C10.63,35.48,5.4,35.46,0,35.46Z"/><path class="cls-2" d="M21.21,23.39c0-1.88,0-3.71,0-5.54a9.73,9.73,0,0,1,9.66-9.66,9.63,9.63,0,0,1,9.49,9.63c0,1.83,0,3.66,0,5.56l1.37.11a1.67,1.67,0,0,1,1.72,1.83q0,7.16,0,14.31a1.57,1.57,0,0,1-1.74,1.78q-10.9,0-21.82,0a1.66,1.66,0,0,1-1.8-1.9c0-4.67,0-9.35,0-14a1.76,1.76,0,0,1,1.86-2Zm14.18,0c0-2,0-3.82,0-5.65a4.45,4.45,0,0,0-3.79-4.41c-2.57-.32-4.81,1-5.16,3.45a46.86,46.86,0,0,0-.07,6.61Z"/></g></g></g></svg>