<svg xmlns="http://www.w3.org/2000/svg" viewBox="0 0 34.99 47.37"><defs><style>.cls-1{fill:none;stroke:#575757;stroke-miterlimit:10;}</style></defs><title>Ресурс 10</title><g id="Слой_2" data-name="Слой 2"><g id="Layer_1" data-name="Layer 1"><path class="cls-1" d="M34.47,27.73c0,4.7,0,9.39,0,14.09,0,3.31-1.63,5-4.91,5q-12.07.06-24.15,0c-3.28,0-4.89-1.72-4.9-5q0-18.11,0-36.22c0-3.4,1.63-5,5.08-5.06,5.5,0,11-.05,16.5,0a3.6,3.6,0,0,1,2.27.9c3.13,3,6.2,6.13,9.18,9.31a3.93,3.93,0,0,1,.89,2.48C34.52,18.07,34.47,22.9,34.47,27.73Zm-13.3-24c-5.16,0-10.11.06-15.06,0-1.85,0-2.43.62-2.42,2.47q.1,17.51,0,35c0,1.87.61,2.47,2.43,2.45q11.39-.09,22.75,0c1.84,0,2.43-.63,2.42-2.47-.08-8.45,0-16.91-.05-25.36,0-.58-.08-1.15-.14-1.9H21.17Zm3.34,6.85h4l-4-4.24Z"/><path class="cls-1" d="M8.61,21.61v-3H26.28v3Z"/><path class="cls-1" d="M8.62,30.11v-3H26.36v3Z"/><path class="cls-1" d="M8.69,35.65H26.28v3H8.69Z"/></g></g></svg>