<svg xmlns="http://www.w3.org/2000/svg" viewBox="0 0 103.21 103.7"><defs><style>.cls-1{fill:#395691;}.cls-2{fill:#fefefd;}.cls-3{fill:#1a4288;}</style></defs><title>Ресурс 15</title><g id="Слой_2" data-name="Слой 2"><g id="Layer_1" data-name="Layer 1"><path class="cls-1" d="M55.43,102.18c-4.47,1.95-9.18.82-13.76.89-11.29.19-22.59,0-33.88.07-5.2,0-7.79-2.33-7.79-7.61Q0,51,0,6.5C0,3.71.66,1.21,3.67.09,35.57.5,67.46.68,99.36,0a4.79,4.79,0,0,1,3.85,5.1c-1,10-.43,19.94-.4,29.9.09,21.06-.55,42.13.35,63.19-.94,4.55-4.46,4.88-8.12,4.94l-23.14.33a2.68,2.68,0,0,1-1.09-2.06c.35-12.5-.77-25,.62-37.48,1.45-2.74,4.24-2.85,6.79-3.49,3-.74,4.43-2.86,4.41-5.83,0-3.29-2.54-3.59-5.06-4-7.58-1.33-8.92-3-9-10.39-.07-7.89,2.23-11.19,8.84-12.59,1.72-.36,3.58-.25,5-1.41A3.85,3.85,0,0,0,83.84,22,4,4,0,0,0,80,18.93C69.6,17.85,59.43,19.79,58.56,35c-.14,2.43-.12,4.87-.24,7.3-.22,4.61-2.38,7.5-7.09,8.15-3.08.42-5.7,1.26-5.75,5.08S47.87,60.4,51,60.8c4.31.54,7,2.89,7.19,7.3.48,9.73.42,19.47,0,29.2C58.15,99.37,57.57,101.24,55.43,102.18Z"/><path class="cls-2" d="M71.77,102.18a3.26,3.26,0,0,0,.13,1.28c-5.49-.44-11.16,1.46-16.47-1.28,0-11.07-.29-22.15,0-33.21.13-4.65-1.24-6.3-5.9-5.94-2.41.18-6.4,1.49-7.11-1.37a27.38,27.38,0,0,1,0-13.07c.66-2.5,4.8-1.2,7.29-1.06,4.23.26,6.33-1,5.63-5.49a26.16,26.16,0,0,1,0-2.66C54.21,17,68.26,13.58,84.21,15.53c2,.24,3,.75,3.24,3.1,1.15,9.38.27,10.68-9,11.3-2.78.18-5.55.53-6.41,3.62-1.19,4.3-1.77,9.15.14,12.93,1.25,2.48,5.78,1.09,8.73.83,4.87-.44,5.87,1.19,5.28,5.86C85,62.39,85.32,62.43,72.83,63.5c-1.52,9.58-.29,19.23-.7,28.84C72,95.62,72.52,98.93,71.77,102.18Z"/><path class="cls-3" d="M71.77,102.18Q71.62,84.1,71.48,66c0-1.08-.11-2.23,1.35-2.54,0,10.54,0,21.09,0,31.63C72.77,97.52,73.22,100,71.77,102.18Z"/></g></g></svg>