<svg xmlns="http://www.w3.org/2000/svg" viewBox="0 0 83.97 75.78"><defs><style>.cls-1{fill:#575757;opacity:0.5;}</style></defs><title>Ресурс 2</title><g id="Слой_2" data-name="Слой 2"><g id="Layer_1" data-name="Layer 1"><path class="cls-1" d="M82,32.62c-2.57-2.12-5.07-4.32-7.6-6.48L53.61,8.33C50.9,6,48.19,3.72,45.5,1.39a5.07,5.07,0,0,0-6.94,0q-10,8.52-20,17.07L6.45,28.82c-1.65,1.41-3.33,2.79-4.92,4.26a4.79,4.79,0,0,0-.07,7,5,5,0,0,0,6.69.36c.81-.63,1.57-1.33,2.36-2a3.09,3.09,0,0,1,.36-.26c0,.16,0,.24,0,.32,0,5.49,0,11,0,16.47,0,3.09,0,6.18,0,9.27a10,10,0,0,0,.2,2,11.94,11.94,0,0,0,11.73,9.59c2.32,0,4.63,0,7,0a5.07,5.07,0,0,0,5.08-5.07c-.07-7,0-14,0-21a2,2,0,0,1,2.21-2.26q4.9,0,9.81,0a2,2,0,0,1,2.27,2.29q0,10.08,0,20.15a8.24,8.24,0,0,0,.11,1.49,5,5,0,0,0,5.28,4.41c2.27,0,4.55,0,6.81,0a11.79,11.79,0,0,0,9-4.29,11.34,11.34,0,0,0,2.75-7.59q0-12.49,0-25V38.1l.4.31c.78.67,1.55,1.36,2.35,2a5.07,5.07,0,0,0,7.29-1.1A5,5,0,0,0,82,32.62ZM41.89,34.07c-3.79,0-6.33-2.26-6.27-5.53s2.6-5.37,6.46-5.35,6.33,2.26,6.27,5.53S45.75,34.09,41.89,34.07Z"/></g></g></svg>