<svg xmlns="http://www.w3.org/2000/svg" viewBox="0 0 73.11 66.27"><defs><style>.cls-1{fill:none;stroke:#fff;stroke-miterlimit:10;stroke-width:3px;}</style></defs><title>home_header</title><g id="Слой_2" data-name="Слой 2"><g id="Layer_1" data-name="Layer 1"><path class="cls-1" d="M70,28.74c-2.15-1.77-4.24-3.61-6.35-5.42L46.26,8.46q-3.39-2.9-6.77-5.8a4.25,4.25,0,0,0-5.79,0L17,16.88,6.89,25.56c-1.38,1.18-2.78,2.33-4.12,3.56a4,4,0,0,0,0,5.8,4.22,4.22,0,0,0,5.59.31c.67-.53,1.31-1.12,2-1.67l.3-.21c0,.13,0,.19,0,.26,0,4.59,0,9.17,0,13.75,0,2.59,0,5.17,0,7.75a8.3,8.3,0,0,0,.17,1.64,10,10,0,0,0,9.79,8c1.93,0,3.87,0,5.81,0a4.23,4.23,0,0,0,4.24-4.23c-.06-5.85,0-11.7,0-17.55a1.67,1.67,0,0,1,1.84-1.89h8.19A1.69,1.69,0,0,1,42.53,43V59.83a6.48,6.48,0,0,0,.1,1.24A4.17,4.17,0,0,0,47,64.76c1.9,0,3.79,0,5.69,0a9.86,9.86,0,0,0,7.51-3.58,9.51,9.51,0,0,0,2.3-6.34V33.31l.34.26c.65.56,1.29,1.14,2,1.67a4.22,4.22,0,0,0,6.08-.92A4.13,4.13,0,0,0,70,28.74ZM36.48,30c-3.17,0-5.29-1.89-5.24-4.62s2.17-4.49,5.39-4.46,5.29,1.88,5.24,4.61S39.7,30,36.48,30Z"/></g></g></svg>