<svg xmlns="http://www.w3.org/2000/svg" viewBox="0 0 51.94 51.94"><defs><style>.cls-1{fill:#575757;opacity:0.5;}</style></defs><title>Ресурс 9</title><g id="Слой_2" data-name="Слой 2"><g id="Layer_1" data-name="Layer 1"><path class="cls-1" d="M26,51.93a26,26,0,1,1,25.94-26A26,26,0,0,1,26,51.93ZM18.14,24.2a3.59,3.59,0,0,0,.41-.11,5.71,5.71,0,0,1,3.06-.36A1.3,1.3,0,0,1,22.81,25a6.15,6.15,0,0,1-.06,1.77c-.4,1.72-.86,3.43-1.32,5.13a24.09,24.09,0,0,0-1.16,5.44A3.92,3.92,0,0,0,22,41a6.23,6.23,0,0,0,4.84.76,34.16,34.16,0,0,0,4.33-1.41.39.39,0,0,0,.24-.21c.14-.53.26-1.07.41-1.7a6.54,6.54,0,0,1-.93.28,9.68,9.68,0,0,1-2.2.23,1.62,1.62,0,0,1-1.65-2.21c.38-1.91.85-3.8,1.33-5.69a25.24,25.24,0,0,0,1.22-5.77,4.09,4.09,0,0,0-1-3.07,5.28,5.28,0,0,0-4.3-1.43,16.74,16.74,0,0,0-5.45,1.53.6.6,0,0,0-.3.36C18.37,23.14,18.27,23.62,18.14,24.2Zm10.12-6.79.61,0A3.71,3.71,0,0,0,32,12.48,4.06,4.06,0,0,0,27.42,10a3.86,3.86,0,0,0-3.14,3.4A3.84,3.84,0,0,0,28.26,17.41Z"/></g></g></svg>