<svg xmlns="http://www.w3.org/2000/svg" viewBox="0 0 45.62 44.97"><defs><style>.cls-1{fill:#575757;}</style></defs><title>Ресурс 12</title><g id="Слой_2" data-name="Слой 2"><g id="Layer_1" data-name="Layer 1"><path class="cls-1" d="M23.87,28.3a9.33,9.33,0,0,1,.39-5.06,7.08,7.08,0,0,1,1.95-3,3,3,0,0,1,3.2-.48,3.34,3.34,0,0,1,2,3.62,8,8,0,0,0,.74,4.48.76.76,0,0,0,.73.52,93.26,93.26,0,0,0,12.39.45l.33,0V44.62l-.67,0c-2.36,0-4.75-.18-7.09,0-5.92.57-11.85.1-17.77.25a4.17,4.17,0,0,1-1.86-.44,3.18,3.18,0,0,1-1.47-4,1.19,1.19,0,0,0,0-.81,3.42,3.42,0,0,1,0-2.7,1.05,1.05,0,0,0,0-.7,3.38,3.38,0,0,1,0-2.7,1,1,0,0,0,0-.65,3.26,3.26,0,0,1,3-4.62c1.15,0,2.29,0,3.43,0Zm13.27,2.11a5.48,5.48,0,0,1-.89.1c-1.38-.1-2.75-.23-4.12-.33a1.41,1.41,0,0,1-1.25-.77,11.07,11.07,0,0,1-1.32-4.07,19.44,19.44,0,0,1,0-2.29,1.46,1.46,0,0,0-1.3-1.72,1.61,1.61,0,0,0-1.44.9,7,7,0,0,0-1.24,4.93c.13,1,.43,2,.66,3H19.8a1.38,1.38,0,0,0-1.36.85,1.3,1.3,0,0,0,.35,1.56,6.14,6.14,0,0,0,.75.54C18,34.88,18,34.88,19.31,36.49c-.35.66-.93,1.26-.91,1.86s.61,1.17,1,1.83l-.4.35a1.39,1.39,0,0,0-.46,1.69,1.43,1.43,0,0,0,1.48.85H36c.87,0,1.15-.3,1.16-1.19V30.41Zm6.62.29H39.05V42.75h4.71Z"/><path class="cls-1" d="M0,16.17V.33H1.2c2.19,0,4.39.17,6.56,0,6-.57,12-.1,17.94-.25A3.12,3.12,0,0,1,29,3.49a7.38,7.38,0,0,0,.1,2.89,3,3,0,0,1-.21,1.49,1.16,1.16,0,0,0,0,.93,3.12,3.12,0,0,1,0,2.59.94.94,0,0,0,0,.64,3.26,3.26,0,0,1-3,4.63c-1.16,0-2.32,0-3.48,0h-.64a9.61,9.61,0,0,1-.37,5,7.3,7.3,0,0,1-1.92,3.06,3,3,0,0,1-3.36.49,3,3,0,0,1-1.93-2.8,24.88,24.88,0,0,0,0-2.59,21.91,21.91,0,0,0-.77-2.71c-.1-.36-.34-.43-.7-.47A90.67,90.67,0,0,0,.4,16.19ZM26.05,4.88c.23-.17.44-.32.63-.49A1.34,1.34,0,0,0,27.1,2.8a1.41,1.41,0,0,0-1.45-.9h-16c-.84,0-1.14.31-1.14,1.15V14.16c0,.14,0,.29,0,.4a4.64,4.64,0,0,1,.86-.1c1.37.1,2.74.23,4.12.34a1.41,1.41,0,0,1,1.24.77,11.07,11.07,0,0,1,1.32,4.07A20.48,20.48,0,0,1,16,22c0,1.18,1,2,1.89,1.53a2.33,2.33,0,0,0,.82-.74A6.86,6.86,0,0,0,20,17.92c-.12-1-.43-2.06-.66-3.12h6.42a1.4,1.4,0,0,0,1.41-.88,1.34,1.34,0,0,0-.41-1.6c-.2-.18-.42-.34-.62-.5,1.41-1.83,1.41-1.83.05-3.47C27.71,6.54,27.71,6.53,26.05,4.88ZM6.59,14.29v-12H1.88v12Z"/></g></g></svg>