<svg xmlns="http://www.w3.org/2000/svg" viewBox="0 0 38.41 47.07"><defs><style>.cls-1{fill:none;stroke:#575757;stroke-miterlimit:10;stroke-width:2px;}</style></defs><title>location</title><g id="Слой_2" data-name="Слой 2"><g id="Layer_1" data-name="Layer 1"><path class="cls-1" d="M19.19,45.63C17.78,44.08,16.37,42.57,15,41A99,99,0,0,1,4.64,27.32a26.78,26.78,0,0,1-3.25-7A13.44,13.44,0,0,1,2.8,10.52C6,4.36,12.88.65,20.28,1c8.74.44,15.94,6.67,17,14.64a14.07,14.07,0,0,1-1.59,8.14A59.73,59.73,0,0,1,29.24,34,136.26,136.26,0,0,1,19.62,45.2,5.78,5.78,0,0,1,19.19,45.63ZM19.21,8c-5,0-9.09,3.77-9.08,8.39s4.12,8.36,9.14,8.34,9.05-3.77,9.05-8.37S24.23,8,19.21,8Z"/></g></g></svg>