<svg xmlns="http://www.w3.org/2000/svg" viewBox="0 0 41.86 52.5"><defs><style>.cls-1{fill:#575757;}</style></defs><title>pass_login</title><g id="Слой_2" data-name="Слой 2"><g id="Layer_1" data-name="Layer 1"><path class="cls-1" d="M35.79,20H32.36c0-9.15-5.08-16.59-11.33-16.59S9.71,10.87,9.71,20H6.28C6.28,9,12.9,0,21,0S35.79,9,35.79,20Z"/><path class="cls-1" d="M25.05,46.79H21.62a1.74,1.74,0,0,0-.6-1.51,1.85,1.85,0,0,0-.57,1.51H17c0-2.77,1.76-4.94,4-4.94S25.05,44,25.05,46.79Z"/><path class="cls-1" d="M41.86,52.5H0V19.56H41.86ZM3.43,49.07h35V23h-35Z"/></g></g></svg>