<svg xmlns="http://www.w3.org/2000/svg" viewBox="0 0 80.3 87.5"><defs><style>.cls-1{fill:#fff;}</style></defs><title>Ресурс 13</title><g id="Слой_2" data-name="Слой 2"><g id="Layer_1" data-name="Layer 1"><path class="cls-1" d="M8.37,0h68c.1.05.19.12.29.16a4.79,4.79,0,0,1,3.63,5V82.36a4.81,4.81,0,0,1-5.15,5.13q-32.76,0-65.53,0A4.82,4.82,0,0,1,4.46,82.3c0-2.34,0-4.67,0-7S5.3,72,7.79,72c2.14,0,4.28,0,6.41,0a6.8,6.8,0,0,0,6.47-6.33c.14-2.58.09-5.18.09-7.77a6.63,6.63,0,0,0-.24-1.77,6.94,6.94,0,0,0-6.95-5.33c-2,0-4,0-6,0-2.17,0-3.13-1-3.14-3.14v-8c0-2.15.61-2.75,2.73-2.76,2.42,0,4.84,0,7.26-.07a6.8,6.8,0,0,0,6.2-5.95c.16-2.73.11-5.46.11-8.2a6.35,6.35,0,0,0-.22-1.68,6.92,6.92,0,0,0-6.86-5.34c-2.25,0-4.5,0-6.75,0-1.69,0-2.45-.75-2.46-2.45,0-2.68-.08-5.36,0-8a7.47,7.47,0,0,1,.82-2.9A4.9,4.9,0,0,1,8.37,0Zm22.4,30.29A22.84,22.84,0,0,0,32.18,39a56.8,56.8,0,0,0,7.48,14.13,32.3,32.3,0,0,0,11,10c3.89,2.06,7.69,2.13,11.48-.27A3.3,3.3,0,0,0,63.45,58q-2-3.45-4-6.87a3.28,3.28,0,0,0-4.92-1.32l-2.73,1.58a1.11,1.11,0,0,1-1.47-.14,29.83,29.83,0,0,1-9-15.56,1.08,1.08,0,0,1,.59-1.35c1-.56,2-1.13,3-1.75a3.1,3.1,0,0,0,1.3-4.2q-2.19-4-4.57-7.9a3,3,0,0,0-3.83-1.17,11,11,0,0,0-4,2.84A13.43,13.43,0,0,0,30.77,30.29Z"/><path class="cls-1" d="M7.5,31.86c-1.51,0-3,0-4.53,0a2.68,2.68,0,0,1-3-3q0-2.78,0-5.55a2.63,2.63,0,0,1,2.86-2.88q4.71,0,9.4,0a2.58,2.58,0,0,1,2.81,2.82q0,2.87,0,5.73a2.62,2.62,0,0,1-2.88,2.85H7.5Z"/><path class="cls-1" d="M7.53,66.86c-1.48,0-3,0-4.44,0A2.54,2.54,0,0,1,.33,64.09q0-2.78,0-5.55A2.5,2.5,0,0,1,3,55.83c3.08,0,6.15,0,9.23,0a2.44,2.44,0,0,1,2.58,2.51q.09,3,0,6a2.48,2.48,0,0,1-2.72,2.55C10.55,66.88,9,66.86,7.53,66.86Z"/></g></g></svg>