<svg xmlns="http://www.w3.org/2000/svg" viewBox="0 0 56.71 56.53"><defs><style>.cls-1{fill:#fff;}</style></defs><title>settings</title><g id="Слой_2" data-name="Слой 2"><g id="Layer_1" data-name="Layer 1"><path class="cls-1" d="M25.56,0h5.66V2.11c0,2.22.08,4.44,0,6.65a4.27,4.27,0,0,0,2,4.3C38.41,16.71,38,23.59,32.53,27a2.51,2.51,0,0,0-1.33,2.52c0,8.57,0,17.14,0,25.7V56.5H25.56V53.23c0-8.06,0-16.12,0-24.19a1.86,1.86,0,0,0-1.08-1.87c-6.1-3.6-6.07-11.24.05-14.83a1.74,1.74,0,0,0,1-1.77C25.53,7.11,25.56,3.64,25.56,0Zm2.89,22.64a3,3,0,0,0,2.8-3,2.85,2.85,0,0,0-5.7.1A2.93,2.93,0,0,0,28.45,22.64Z"/><path class="cls-1" d="M5.74,0h5.58V1.61c0,8.62,0,17.24,0,25.86a1.87,1.87,0,0,0,1.08,1.88c6.15,3.65,6.17,11.13,0,14.83a2,2,0,0,0-1.13,2c.07,3.42,0,6.83,0,10.34H5.85c0-.46-.11-.89-.11-1.32,0-2.12-.07-4.24,0-6.35.1-2.35-.15-4.08-2.47-5.78C-1.64,39.43-.86,32.69,4.5,29.46a2.24,2.24,0,0,0,1.27-2.25c0-8.37,0-16.74,0-25.11ZM8.5,39.62a2.82,2.82,0,0,0,2.87-2.68,2.92,2.92,0,0,0-2.72-3,3,3,0,0,0-3,2.79A2.87,2.87,0,0,0,8.5,39.62Z"/><path class="cls-1" d="M51.05,56.53H45.47c0-2.58,0-5.08,0-7.58a1.81,1.81,0,0,0-1-1.88c-6.21-3.61-6.22-11.27,0-14.89a1.86,1.86,0,0,0,1.06-1.89c0-9.42,0-18.84,0-28.27V.08H51v1.6c0,9.42,0,18.85,0,28.27a2.36,2.36,0,0,0,1.27,2.38c5.93,3.57,5.86,11.14-.1,14.65A2,2,0,0,0,51,49.11C51.09,51.52,51.05,53.94,51.05,56.53ZM48.18,36.76a2.92,2.92,0,0,0-2.77,3,2.85,2.85,0,0,0,5.7-.15A2.92,2.92,0,0,0,48.18,36.76Z"/></g></g></svg>