<svg xmlns="http://www.w3.org/2000/svg" viewBox="0 0 54.92 49.83"><defs><style>.cls-1{fill:#575757;}</style></defs><title>Ресурс 8</title><g id="Слой_2" data-name="Слой 2"><g id="Layer_1" data-name="Layer 1"><path class="cls-1" d="M47,49.83a7.91,7.91,0,0,1-4.65-1.52,7.78,7.78,0,0,1-3.26-5.94.61.61,0,0,0-.45-.64c-9.41-4.18-17.25-7.69-24.68-11-.3-.13-.39-.09-.68.16a7.66,7.66,0,0,1-8.59,1.26A7.68,7.68,0,0,1,0,24.87H0v0a7.74,7.74,0,0,1,4.76-7.17A7.65,7.65,0,0,1,13.27,19a.5.5,0,0,0,.69.1c8.07-3.62,16.37-7.34,24.67-11A.54.54,0,0,0,39,7.5,7.95,7.95,0,0,1,54.38,5.08a7.94,7.94,0,0,1-12.93,8.58c-.33-.33-.49-.36-.94-.16-4.42,2-8.92,4-13.27,5.94l-5.36,2.39-2.09.94c-1.16.52-2.36,1.07-3.55,1.58-.28.12-.34.22-.34.54s0,.47.36.61C24.12,29,32.13,32.57,40.74,36.44c.27.12.34.1.59-.15a7.85,7.85,0,0,1,9-1.63A8,8,0,0,1,49,49.56,8.11,8.11,0,0,1,47,49.83ZM13.65,30a1.29,1.29,0,0,1,.53.12c7.43,3.34,15.27,6.85,24.67,11a1.21,1.21,0,0,1,.83,1.18,7.17,7.17,0,0,0,3,5.47,7.32,7.32,0,1,0-.9-11.06,1,1,0,0,1-1.3.28C31.87,33.15,23.86,29.57,16,26.08a1.13,1.13,0,0,1-.73-1.19A1.07,1.07,0,0,1,16,23.77c1.18-.51,2.38-1.06,3.54-1.58l2.09-.94L27,18.86c4.36-1.94,8.85-3.95,13.27-5.94a1.28,1.28,0,0,1,1.65.29,7.26,7.26,0,0,0,9.09.87A7.32,7.32,0,0,0,45.86.73a7.26,7.26,0,0,0-6.18,6.8,1.16,1.16,0,0,1-.79,1.14c-8.3,3.69-16.61,7.4-24.67,11a1.11,1.11,0,0,1-1.36-.2A7,7,0,0,0,5,18.25a7.27,7.27,0,0,0-.1,13.3,7,7,0,0,0,7.92-1.18A1.25,1.25,0,0,1,13.65,30Z"/></g></g></svg>