<svg xmlns="http://www.w3.org/2000/svg" viewBox="0 0 92.83 86.79"><defs><style>.cls-1{fill:#575757;}</style></defs><title>Ресурс 17</title><g id="Слой_2" data-name="Слой 2"><g id="Layer_1" data-name="Layer 1"><path class="cls-1" d="M22.52,52.47a2.21,2.21,0,0,1,.91.23c12.86,6,26.43,12.24,42.7,19.71a2.17,2.17,0,0,1,1.43,2.11,12.91,12.91,0,0,0,5.19,9.77,12.19,12.19,0,0,0,10.7,2,12.85,12.85,0,0,0,9.3-11.26,13,13,0,0,0-7.27-13.24,12.24,12.24,0,0,0-14.29,2.7A1.73,1.73,0,0,1,69,65C54,58.11,40.18,51.71,26.58,45.47a2,2,0,0,1-1.26-2.12,1.91,1.91,0,0,1,1.25-2c2.05-.92,4.12-1.89,6.12-2.83l3.62-1.68,9.28-4.28c7.53-3.46,15.32-7,23-10.6a2.15,2.15,0,0,1,2.85.51A12.24,12.24,0,0,0,87.13,24,13.37,13.37,0,0,0,92,8.35,12.61,12.61,0,0,0,78.26.17,12.83,12.83,0,0,0,67.55,12.33a2.07,2.07,0,0,1-1.35,2C51.83,21,37.46,27.59,23.5,34.07a1.87,1.87,0,0,1-2.35-.35C17,30,12.42,29.28,7.57,31.49,2.88,33.62.33,37.6,0,43.3.21,49,2.7,53,7.4,55.24s9.45,1.59,13.7-2.1A2.14,2.14,0,0,1,22.52,52.47Z"/></g></g></svg>