<svg xmlns="http://www.w3.org/2000/svg" viewBox="0 0 75.1 75.16"><defs><style>.cls-1{opacity:0.5;}.cls-2{fill:#575757;}</style></defs><title>Ресурс 3</title><g id="Слой_2" data-name="Слой 2"><g id="Layer_1" data-name="Layer 1"><g class="cls-1"><path class="cls-2" d="M0,7.41V0c4,0,7.79,0,11.58,0,.42,0,.95.62,1.19,1.08A38.06,38.06,0,0,1,15,5.83a2.41,2.41,0,0,0,2.7,1.73c17.12,0,34.25.13,51.37-.13,5.56-.08,7.7,2.63,4.55,7.83-4.21,7-8,14.2-11.85,21.38a8.25,8.25,0,0,1-7.94,4.71c-8.43-.05-16.86,0-25.29-.05A2.56,2.56,0,0,0,25.77,43c-.62,1.4-1.45,2.71-2.2,4s-.22,1.88,1.12,2c.47,0,.94,0,1.41,0H67.56v7.37H65.72q-21.18,0-42.35,0c-6.95,0-10.29-5.7-7-11.86,1.34-2.46,2.77-4.88,4-7.38a2.82,2.82,0,0,0,.08-2.17Q14.39,21.76,8.06,8.7A2.94,2.94,0,0,0,6,7.47C4.06,7.3,2.13,7.41,0,7.41Z"/><path class="cls-2" d="M60.29,60.23A7.46,7.46,0,1,1,60,75.15a7.46,7.46,0,0,1,.26-14.92Z"/><path class="cls-2" d="M30,67.64a7.33,7.33,0,0,1-7.43,7.52,7.47,7.47,0,0,1-.09-14.93A7.3,7.3,0,0,1,30,67.64Z"/></g></g></g></svg>