<svg xmlns="http://www.w3.org/2000/svg" viewBox="0 0 76.17 71.85"><defs><style>.cls-1{fill:#17c95f;}</style></defs><title>Ресурс 5</title><g id="Слой_2" data-name="Слой 2"><g id="Layer_1" data-name="Layer 1"><path class="cls-1" d="M38.09,71.85H3.57A3.64,3.64,0,0,1,.9,71,2.65,2.65,0,0,1,0,68.55,39.31,39.31,0,0,1,3,58a38.26,38.26,0,0,1,8.3-11.9,38.66,38.66,0,0,1,8.45-6.26.68.68,0,0,1,1,.1,24.63,24.63,0,0,0,9.42,5.69,24.89,24.89,0,0,0,11.27,1.05A23.85,23.85,0,0,0,51.69,42.9,40.89,40.89,0,0,0,55.36,40a.78.78,0,0,1,1.07-.12A38.61,38.61,0,0,1,73.75,59.45a38.1,38.1,0,0,1,2.4,9.21,2.8,2.8,0,0,1-2.48,3.12,10.36,10.36,0,0,1-1.25.07Z"/><path class="cls-1" d="M38.09,0A21.81,21.81,0,1,1,16.27,21.81,21.78,21.78,0,0,1,38.09,0Z"/></g></g></svg>