<svg xmlns="http://www.w3.org/2000/svg" viewBox="0 0 41.28 39.05"><defs><style>.cls-1{fill:#575757;}</style></defs><title>Ресурс 6</title><g id="Слой_2" data-name="Слой 2"><g id="Layer_1" data-name="Layer 1"><path class="cls-1" d="M26.6,39.05H2.78a5.16,5.16,0,0,1-1-.1A2.14,2.14,0,0,1,.3,38.08a2,2,0,0,1-.24-1.55L.18,36A27.36,27.36,0,0,1,1.23,32a20.83,20.83,0,0,1,9-10.65,1.44,1.44,0,0,1,1.94.21,12.25,12.25,0,0,0,7,3.12A12.66,12.66,0,0,0,28.68,22l.05,0,.14-.12c1.05-.92,1.35-.94,2.5-.22a20.9,20.9,0,0,1,9.76,14.11,8.6,8.6,0,0,1,.15,1.19,1.92,1.92,0,0,1-1.6,2,5.64,5.64,0,0,1-1.16.12Zm-6-1.2H38.52a4.78,4.78,0,0,0,.92-.09.72.72,0,0,0,.64-.81A7.08,7.08,0,0,0,40,36a19.77,19.77,0,0,0-9.22-13.34,6,6,0,0,0-.55-.31,4.25,4.25,0,0,0-.51.41,1.57,1.57,0,0,1-.21.17l0,0a13.83,13.83,0,0,1-10.38,3,13.39,13.39,0,0,1-7.64-3.44c-.25-.22-.27-.21-.52-.06a19.58,19.58,0,0,0-8.53,10,26.19,26.19,0,0,0-1,3.75l-.12.58a.78.78,0,0,0,.07.62,1,1,0,0,0,.66.36,4.56,4.56,0,0,0,.82.08H20.65Z"/><path class="cls-1" d="M20.65,24.07h0A12.2,12.2,0,0,1,8.61,12a12,12,0,0,1,3.6-8.53A11.86,11.86,0,0,1,20.65,0h.09a11.83,11.83,0,0,1,8.38,3.5,12,12,0,0,1,3.57,8.57A12.2,12.2,0,0,1,20.65,24.07ZM20.56,1.2a10.63,10.63,0,0,0-7.51,3.13A10.8,10.8,0,0,0,9.81,12,11,11,0,0,0,20.62,22.87h0a11,11,0,0,0,10.84-10.8,10.81,10.81,0,0,0-3.22-7.72A10.64,10.64,0,0,0,20.74,1.2h-.18Z"/></g></g></svg>