<svg xmlns="http://www.w3.org/2000/svg" viewBox="0 0 48 57.63"><defs><style>.cls-1{opacity:0.7;}.cls-2{fill:#575757;}</style></defs><title>user_login</title><g id="Слой_2" data-name="Слой 2"><g id="Layer_1" data-name="Layer 1"><g class="cls-1"><path class="cls-2" d="M23.86,32.22c-9.59,0-17.4-7.23-17.4-16.11S14.27,0,23.86,0,41.25,7.23,41.25,16.11,33.45,32.22,23.86,32.22ZM23.86,4C16.5,4,10.51,9.46,10.51,16.11s6,12.06,13.35,12.06S37.2,22.76,37.2,16.11,31.22,4,23.86,4Z"/><path class="cls-2" d="M48,57.63H44c0-10-9-18.12-20-18.12S4,47.64,4,57.63H0C0,45.41,10.77,35.47,24,35.47S48,45.41,48,57.63Z"/></g></g></g></svg>