<svg xmlns="http://www.w3.org/2000/svg" viewBox="0 0 39.52 50.76"><defs><style>.cls-1{fill:#575757;}</style></defs><title>Ресурс 7</title><g id="Слой_2" data-name="Слой 2"><g id="Layer_1" data-name="Layer 1"><path class="cls-1" d="M16,50.76H3.91A3.63,3.63,0,0,1,0,46.84V26.71a3.69,3.69,0,0,1,4.05-4.05H35.28c2,0,3.32.82,3.87,2.37a4.32,4.32,0,0,1,.26,1.4c0,2,0,4,0,5.94v1.69a2.12,2.12,0,0,1,0,.24s0,.09,0,.14l0,.24H29.94a5.33,5.33,0,0,0-5.09,3.51,5.54,5.54,0,0,0,1.52,6.14A5.33,5.33,0,0,0,30,45.65h9.27l0,.2a4.24,4.24,0,0,1-.39,3.26,3.59,3.59,0,0,1-2.35,1.57,4.23,4.23,0,0,1-.93.08ZM11.76,23.18H4.05c-2.31,0-3.53,1.23-3.53,3.53V46.84a3.12,3.12,0,0,0,3.39,3.4H35.66a4.39,4.39,0,0,0,.82-.07,3,3,0,0,0,2-1.34,3.56,3.56,0,0,0,.37-2.66H30a5.83,5.83,0,0,1-4-1.44A6.06,6.06,0,0,1,24.37,38a5.88,5.88,0,0,1,5.56-3.85h9s0-.07,0-.1V32.37c0-1.94,0-4,0-5.93a3.88,3.88,0,0,0-.23-1.24c-.47-1.34-1.61-2-3.38-2H11.76Z"/><path class="cls-1" d="M27.55,20.9h0l-10.42,0H13.7l-.17,0-.11,0-.29-.06,2.13-6.29c.58-1.72,1.19-3.5,1.78-5.26a.89.89,0,0,1,.92-.7A4,4,0,0,0,21.08,7a.88.88,0,0,1,1.11-.3c2,.7,4,1.37,5.88,2a.71.71,0,0,1,.57.75,4.6,4.6,0,0,0,1.5,3.36,1,1,0,0,1,.27,1.12c-.61,1.79-1.2,3.62-1.78,5.39l-.32,1A.75.75,0,0,1,27.55,20.9Zm-13.73-.54h3.31c3.42,0,7,0,10.42,0,.16,0,.18,0,.26-.27l.33-1c.57-1.77,1.17-3.6,1.77-5.4a.44.44,0,0,0-.13-.58A5.07,5.07,0,0,1,28.12,9.4c0-.17,0-.2-.21-.26C26,8.51,24,7.84,22,7.14c-.28-.09-.36-.07-.54.14A4.54,4.54,0,0,1,18,9.05c-.28,0-.35.06-.44.34-.58,1.75-1.19,3.54-1.78,5.26Zm9.66-5.59A2.58,2.58,0,0,1,21,12.27a2.49,2.49,0,0,1,.75-1.71,2.68,2.68,0,0,1,1.89-.82h0a2.39,2.39,0,0,1,1.68.7,2.68,2.68,0,0,1,.76,1.9,2.51,2.51,0,0,1-2.56,2.43Zm.13-4.51a2.19,2.19,0,0,0-1.52.67,1.94,1.94,0,0,0-.6,1.34,2,2,0,0,0,2,2,2,2,0,0,0,2.05-1.91,2.13,2.13,0,0,0-.61-1.53,1.83,1.83,0,0,0-1.31-.55Z"/><path class="cls-1" d="M10.56,21.15h-.05c-.43,0-.88,0-1.35,0h-1l3.11-9.35Q13,6.54,14.75,1.3A1.83,1.83,0,0,1,15.57.12,1.79,1.79,0,0,1,17,.18L36.06,6.55a1.51,1.51,0,0,1,1.08,2.1c-1.24,3.76-2.53,7.63-4,11.84a.79.79,0,0,1-.59.51c-.52,0-1,0-1.58,0h-.94l.17-.55c0-.13.07-.25.11-.36l.79-2.38c.5-1.48,1-3,1.48-4.45A1,1,0,0,0,32,11.91a2.66,2.66,0,0,1-1.61-3.12.94.94,0,0,0-.72-1.29c-2.67-.89-5.5-1.82-8.42-2.77A.92.92,0,0,0,20,5.31,2.6,2.6,0,0,1,16.77,7c-.59-.12-1,.14-1.21.82l-2,5.94-1.24,3.74c-.1.31-.21.62-.31.93-.24.71-.49,1.44-.72,2.16A.72.72,0,0,1,10.56,21.15Zm-.84-.54.82,0c.17,0,.21,0,.28-.23.23-.72.47-1.46.71-2.17.11-.31.21-.62.31-.93l1.25-3.74c.66-2,1.31-4,2-5.94a1.49,1.49,0,0,1,1.82-1.16A2.08,2.08,0,0,0,19.54,5.1a1.45,1.45,0,0,1,1.88-.87L29.83,7A1.46,1.46,0,0,1,30.9,8.91a2.12,2.12,0,0,0,1.3,2.52,1.45,1.45,0,0,1,.93,2c-.49,1.49-1,3-1.48,4.46l-.79,2.37-.08.23H31c.53,0,1,0,1.53,0a.41.41,0,0,0,.14-.15c1.41-4.21,2.7-8.09,3.94-11.84A1,1,0,0,0,35.9,7L16.84.67a1.45,1.45,0,0,0-1-.08c-.21.1-.39.38-.55.88Q13.5,6.71,11.76,12L8.87,20.62h.85Z"/><path class="cls-1" d="M33.76,43.89H30a3.58,3.58,0,0,1-3.59-3,3.66,3.66,0,0,1,3.49-4.44c2.38,0,4.79,0,7.12,0h1.85l.24,0h.13l.24,0v7.32l-.24,0-.14,0c-.11,0-.22,0-.34,0h-5ZM34.5,37H30a3.12,3.12,0,0,0-3,3.83,3.06,3.06,0,0,0,3.08,2.55H39V37H34.5Zm-4.44,4.6h0a1.38,1.38,0,0,1-1-.43,1.42,1.42,0,0,1-.4-1,1.34,1.34,0,0,1,1.38-1.34h0a1.45,1.45,0,0,1,1,.44,1.27,1.27,0,0,1,.36.92A1.55,1.55,0,0,1,30.06,41.57Zm0-2.28a.82.82,0,0,0-.86.84.91.91,0,0,0,.26.65.88.88,0,0,0,.6.27h0a1.05,1.05,0,0,0,.89-.94.72.72,0,0,0-.22-.54,1,1,0,0,0-.66-.28h0Z"/></g></g></svg>