<svg xmlns="http://www.w3.org/2000/svg" viewBox="0 0 104.08 103.95"><defs><style>.cls-1{fill:#fefefe;}.cls-2{fill:#4ac659;}</style></defs><title>Ресурс 14</title><g id="Слой_2" data-name="Слой 2"><g id="Layer_1" data-name="Layer 1"><path class="cls-1" d="M0,104c2.72-8.08,5.12-15.65,7.85-23.1a8.4,8.4,0,0,0-.49-7.49c-15.95-31.1,4.32-68.8,39.13-73a50.92,50.92,0,0,1,56.81,41.8c4.88,26.5-13.85,53.34-40.48,58.16A51.64,51.64,0,0,1,30,95.87a4.44,4.44,0,0,0-3.67-.28C17.76,98.37,9.18,101,0,104Z"/><path class="cls-2" d="M12.82,91.39c1.66-4.9,3.07-9.24,4.61-13.54a4.12,4.12,0,0,0-.43-4c-8.77-14-9.71-28.61-1.88-43.13C23.09,15.9,36,8.31,52.81,8.1,75.09,7.83,94.23,25.6,95.75,47a42.93,42.93,0,0,1-38,46,41.69,41.69,0,0,1-26.69-5.7,4.18,4.18,0,0,0-3.86-.45C22.65,88.34,18,89.74,12.82,91.39Z"/><path class="cls-1" d="M37.25,27.52c2-.41,3.23.69,4,2.79A45.22,45.22,0,0,0,44.06,37c1.53,2.74,1.07,5-1.14,6.94-2.43,2.08-2,3.87-.29,6.2A35.55,35.55,0,0,0,57.51,62.31c1.78.77,3.12.8,4.26-.93a25.87,25.87,0,0,1,1.66-2c2.74-3.38,2.75-3.4,6.79-1.49C72.49,59,74.7,60.17,77,61.15c1.67.71,2.08,1.83,1.85,3.51C78,71.16,71,75.73,64.12,74.19,48.31,70.67,37.35,60.93,30,46.92c-3.35-6.35-2.46-12.64,1.73-17.17C33.53,27.78,34.22,27.48,37.25,27.52Z"/></g></g></svg>